<svg id="visual" viewBox="0 0 1920 1300" width="1920" height="1300" xmlns="http://www.w3.org/2000/svg" xmlns:xlink="http://www.w3.org/1999/xlink" version="1.1"><path d="M0 131L320 131L640 157L960 209L1280 105L1600 92L1920 131L1920 0L1600 0L1280 0L960 0L640 0L320 0L0 0Z" fill="#ffffff"></path><path d="M0 196L320 170L640 196L960 261L1280 170L1600 131L1920 157L1920 129L1600 90L1280 103L960 207L640 155L320 129L0 129Z" fill="#edf8ff"></path><path d="M0 261L320 209L640 248L960 339L1280 235L1600 196L1920 222L1920 155L1600 129L1280 168L960 259L640 194L320 168L0 194Z" fill="#dbf0ff"></path><path d="M0 365L320 326L640 300L960 391L1280 300L1600 274L1920 274L1920 220L1600 194L1280 233L960 337L640 246L320 207L0 259Z" fill="#c8eaff"></path><path d="M0 417L320 391L640 391L960 482L1280 365L1600 365L1920 365L1920 272L1600 272L1280 298L960 389L640 298L320 324L0 363Z" fill="#b4e3ff"></path><path d="M0 456L320 443L640 430L960 508L1280 417L1600 404L1920 430L1920 363L1600 363L1280 363L960 480L640 389L320 389L0 415Z" fill="#abe0ff"></path><path d="M0 677L320 612L640 690L960 664L1280 755L1600 703L1920 690L1920 428L1600 402L1280 415L960 506L640 428L320 441L0 454Z" fill="#abe0ff"></path><path d="M0 976L320 1015L640 898L960 937L1280 924L1600 950L1920 911L1920 688L1600 701L1280 753L960 662L640 688L320 610L0 675Z" fill="#b4e3ff"></path><path d="M0 1015L320 1054L640 963L960 1028L1280 976L1600 1002L1920 976L1920 909L1600 948L1280 922L960 935L640 896L320 1013L0 974Z" fill="#c8eaff"></path><path d="M0 1080L320 1132L640 1041L960 1106L1280 1028L1600 1067L1920 1054L1920 974L1600 1000L1280 974L960 1026L640 961L320 1052L0 1013Z" fill="#dbf0ff"></path><path d="M0 1197L320 1210L640 1171L960 1197L1280 1197L1600 1197L1920 1197L1920 1052L1600 1065L1280 1026L960 1104L640 1039L320 1130L0 1078Z" fill="#edf8ff"></path><path d="M0 1301L320 1301L640 1301L960 1301L1280 1301L1600 1301L1920 1301L1920 1195L1600 1195L1280 1195L960 1195L640 1169L320 1208L0 1195Z" fill="#ffffff"></path></svg>