<svg id="visual" viewBox="0 0 1920 250" width="1920" height="250" xmlns="http://www.w3.org/2000/svg" xmlns:xlink="http://www.w3.org/1999/xlink" version="1.1"><path d="M0 26L320 26L640 31L960 41L1280 21L1600 19L1920 26L1920 0L1600 0L1280 0L960 0L640 0L320 0L0 0Z" fill="#ffffff"></path><path d="M0 39L320 34L640 39L960 51L1280 34L1600 26L1920 31L1920 24L1600 17L1280 19L960 39L640 29L320 24L0 24Z" fill="#edf8ff"></path><path d="M0 51L320 41L640 49L960 66L1280 46L1600 39L1920 44L1920 29L1600 24L1280 32L960 49L640 37L320 32L0 37Z" fill="#dbf0ff"></path><path d="M0 71L320 64L640 59L960 76L1280 59L1600 54L1920 54L1920 42L1600 37L1280 44L960 64L640 47L320 39L0 49Z" fill="#c8eaff"></path><path d="M0 81L320 76L640 76L960 94L1280 71L1600 71L1920 71L1920 52L1600 52L1280 57L960 74L640 57L320 62L0 69Z" fill="#b4e3ff"></path><path d="M0 89L320 86L640 84L960 99L1280 81L1600 79L1920 84L1920 69L1600 69L1280 69L960 92L640 74L320 74L0 79Z" fill="#abe0ff"></path><path d="M0 131L320 119L640 134L960 129L1280 146L1600 136L1920 134L1920 82L1600 77L1280 79L960 97L640 82L320 84L0 87Z" fill="#abe0ff"></path><path d="M0 189L320 196L640 174L960 181L1280 179L1600 184L1920 176L1920 132L1600 134L1280 144L960 127L640 132L320 117L0 129Z" fill="#b4e3ff"></path><path d="M0 196L320 204L640 186L960 199L1280 189L1600 194L1920 189L1920 174L1600 182L1280 177L960 179L640 172L320 194L0 187Z" fill="#c8eaff"></path><path d="M0 209L320 219L640 201L960 214L1280 199L1600 206L1920 204L1920 187L1600 192L1280 187L960 197L640 184L320 202L0 194Z" fill="#dbf0ff"></path><path d="M0 231L320 234L640 226L960 231L1280 231L1600 231L1920 231L1920 202L1600 204L1280 197L960 212L640 199L320 217L0 207Z" fill="#edf8ff"></path><path d="M0 251L320 251L640 251L960 251L1280 251L1600 251L1920 251L1920 229L1600 229L1280 229L960 229L640 224L320 232L0 229Z" fill="#ffffff"></path></svg>