<svg id="visual" viewBox="0 0 1920 550" width="1920" height="550" xmlns="http://www.w3.org/2000/svg" xmlns:xlink="http://www.w3.org/1999/xlink" version="1.1"><path d="M0 45L274 56L549 51L823 45L1097 51L1371 51L1646 56L1920 45L1920 0L1646 0L1371 0L1097 0L823 0L549 0L274 0L0 0Z" fill="#abe0ff"></path><path d="M0 100L274 133L549 117L823 111L1097 122L1371 106L1646 106L1920 106L1920 43L1646 54L1371 49L1097 49L823 43L549 49L274 54L0 43Z" fill="#bae5ff"></path><path d="M0 254L274 249L549 227L823 216L1097 221L1371 216L1646 254L1920 254L1920 104L1646 104L1371 104L1097 120L823 109L549 115L274 131L0 98Z" fill="#c9eaff"></path><path d="M0 380L274 380L549 397L823 375L1097 364L1371 364L1646 375L1920 386L1920 252L1646 252L1371 214L1097 219L823 214L549 225L274 247L0 252Z" fill="#d7efff"></path><path d="M0 414L274 414L549 430L823 419L1097 408L1371 403L1646 425L1920 430L1920 384L1646 373L1371 362L1097 362L823 373L549 395L274 378L0 378Z" fill="#e5f4ff"></path><path d="M0 502L274 502L549 496L823 507L1097 496L1371 502L1646 507L1920 502L1920 428L1646 423L1371 401L1097 406L823 417L549 428L274 412L0 412Z" fill="#f2faff"></path><path d="M0 551L274 551L549 551L823 551L1097 551L1371 551L1646 551L1920 551L1920 500L1646 505L1371 500L1097 494L823 505L549 494L274 500L0 500Z" fill="#ffffff"></path></svg>