<svg id="visual" viewBox="0 0 433 66" width="433" height="66" xmlns="http://www.w3.org/2000/svg" xmlns:xlink="http://www.w3.org/1999/xlink" version="1.1"><path d="M363 66L415 66L415 61L376 61L376 55L393 55L393 50L415 50L415 44L393 44L393 38L402 38L402 33L376 33L376 27L397 27L397 22L358 22L358 17L371 17L371 11L367 11L367 6L380 6L380 0L433 0L433 6L433 6L433 11L433 11L433 17L433 17L433 22L433 22L433 27L433 27L433 33L433 33L433 38L433 38L433 44L433 44L433 50L433 50L433 55L433 55L433 61L433 61L433 66L433 66Z" fill="#ffffff"></path><path d="M328 66L358 66L358 61L328 61L328 55L341 55L341 50L350 50L350 44L315 44L315 38L350 38L350 33L289 33L289 27L332 27L332 22L280 22L280 17L345 17L345 11L302 11L302 6L315 6L315 0L381 0L381 6L368 6L368 11L372 11L372 17L359 17L359 22L398 22L398 27L377 27L377 33L403 33L403 38L394 38L394 44L416 44L416 50L394 50L394 55L377 55L377 61L416 61L416 66L364 66Z" fill="#f2faff"></path><path d="M133 66L224 66L224 61L259 61L259 55L267 55L267 50L220 50L220 44L267 44L267 38L267 38L267 33L198 33L198 27L233 27L233 22L138 22L138 17L246 17L246 11L146 11L146 6L138 6L138 0L316 0L316 6L303 6L303 11L346 11L346 17L281 17L281 22L333 22L333 27L290 27L290 33L351 33L351 38L316 38L316 44L351 44L351 50L342 50L342 55L329 55L329 61L359 61L359 66L329 66Z" fill="#e5f5ff"></path><path d="M77 66L146 66L146 61L151 61L151 55L90 55L90 50L129 50L129 44L86 44L86 38L142 38L142 33L94 33L94 27L120 27L120 22L55 22L55 17L120 17L120 11L90 11L90 6L42 6L42 0L139 0L139 6L147 6L147 11L247 11L247 17L139 17L139 22L234 22L234 27L199 27L199 33L268 33L268 38L268 38L268 44L221 44L221 50L268 50L268 55L260 55L260 61L225 61L225 66L134 66Z" fill="#e5f5ff"></path><path d="M34 66L107 66L107 61L90 61L90 55L60 55L60 50L99 50L99 44L55 44L55 38L116 38L116 33L73 33L73 27L73 27L73 22L25 22L25 17L94 17L94 11L42 11L42 6L25 6L25 0L43 0L43 6L91 6L91 11L121 11L121 17L56 17L56 22L121 22L121 27L95 27L95 33L143 33L143 38L87 38L87 44L130 44L130 50L91 50L91 55L152 55L152 61L147 61L147 66L78 66Z" fill="#f2faff"></path><path d="M0 66L0 66L0 61L0 61L0 55L0 55L0 50L0 50L0 44L0 44L0 38L0 38L0 33L0 33L0 27L0 27L0 22L0 22L0 17L0 17L0 11L0 11L0 6L0 6L0 0L26 0L26 6L43 6L43 11L95 11L95 17L26 17L26 22L74 22L74 27L74 27L74 33L117 33L117 38L56 38L56 44L100 44L100 50L61 50L61 55L91 55L91 61L108 61L108 66L35 66Z" fill="#ffffff"></path></svg>