<svg id="visual" viewBox="0 0 325 66" width="325" height="66" xmlns="http://www.w3.org/2000/svg" xmlns:xlink="http://www.w3.org/1999/xlink" version="1.1"><path d="M275 66L272 66L272 58L266 58L266 50L275 50L275 41L266 41L266 33L269 33L269 25L282 25L282 17L285 17L285 8L253 8L253 0L325 0L325 8L325 8L325 17L325 17L325 25L325 25L325 33L325 33L325 41L325 41L325 50L325 50L325 58L325 58L325 66L325 66Z" fill="#ffffff"></path><path d="M230 66L178 66L178 58L155 58L155 50L236 50L236 41L175 41L175 33L230 33L230 25L204 25L204 17L204 17L204 8L194 8L194 0L254 0L254 8L286 8L286 17L283 17L283 25L270 25L270 33L267 33L267 41L276 41L276 50L267 50L267 58L273 58L273 66L276 66Z" fill="#f2faff"></path><path d="M210 66L165 66L165 58L103 58L103 50L217 50L217 41L155 41L155 33L197 33L197 25L165 25L165 17L178 17L178 8L139 8L139 0L195 0L195 8L205 8L205 17L205 17L205 25L231 25L231 33L176 33L176 41L237 41L237 50L156 50L156 58L179 58L179 66L231 66Z" fill="#e5f5ff"></path><path d="M162 66L136 66L136 58L67 58L67 50L204 50L204 41L132 41L132 33L165 33L165 25L132 25L132 17L152 17L152 8L116 8L116 0L140 0L140 8L179 8L179 17L166 17L166 25L198 25L198 33L156 33L156 41L218 41L218 50L104 50L104 58L166 58L166 66L211 66Z" fill="#e5f5ff"></path><path d="M97 66L93 66L93 58L48 58L48 50L155 50L155 41L109 41L109 33L132 33L132 25L90 25L90 17L106 17L106 8L87 8L87 0L117 0L117 8L153 8L153 17L133 17L133 25L166 25L166 33L133 33L133 41L205 41L205 50L68 50L68 58L137 58L137 66L163 66Z" fill="#f2faff"></path><path d="M0 66L0 66L0 58L0 58L0 50L0 50L0 41L0 41L0 33L0 33L0 25L0 25L0 17L0 17L0 8L0 8L0 0L88 0L88 8L107 8L107 17L91 17L91 25L133 25L133 33L110 33L110 41L156 41L156 50L49 50L49 58L94 58L94 66L98 66Z" fill="#ffffff"></path></svg>