<svg id="visual" viewBox="0 0 494 66" width="494" height="66" xmlns="http://www.w3.org/2000/svg" xmlns:xlink="http://www.w3.org/1999/xlink" version="1.1"><path d="M414 66L473 66L473 61L429 61L429 55L449 55L449 50L473 50L473 44L449 44L449 38L458 38L458 33L429 33L429 27L453 27L453 22L409 22L409 17L424 17L424 11L419 11L419 6L434 6L434 0L494 0L494 6L494 6L494 11L494 11L494 17L494 17L494 22L494 22L494 27L494 27L494 33L494 33L494 38L494 38L494 44L494 44L494 50L494 50L494 55L494 55L494 61L494 61L494 66L494 66Z" fill="#ffffff"></path><path d="M374 66L409 66L409 61L374 61L374 55L389 55L389 50L399 50L399 44L360 44L360 38L399 38L399 33L330 33L330 27L379 27L379 22L320 22L320 17L394 17L394 11L345 11L345 6L360 6L360 0L435 0L435 6L420 6L420 11L425 11L425 17L410 17L410 22L454 22L454 27L430 27L430 33L459 33L459 38L450 38L450 44L474 44L474 50L450 50L450 55L430 55L430 61L474 61L474 66L415 66Z" fill="#f2faff"></path><path d="M152 66L256 66L256 61L295 61L295 55L305 55L305 50L251 50L251 44L305 44L305 38L305 38L305 33L226 33L226 27L266 27L266 22L157 22L157 17L281 17L281 11L167 11L167 6L157 6L157 0L361 0L361 6L346 6L346 11L395 11L395 17L321 17L321 22L380 22L380 27L331 27L331 33L400 33L400 38L361 38L361 44L400 44L400 50L390 50L390 55L375 55L375 61L410 61L410 66L375 66Z" fill="#e5f5ff"></path><path d="M88 66L167 66L167 61L172 61L172 55L103 55L103 50L147 50L147 44L98 44L98 38L162 38L162 33L108 33L108 27L137 27L137 22L63 22L63 17L137 17L137 11L103 11L103 6L48 6L48 0L158 0L158 6L168 6L168 11L282 11L282 17L158 17L158 22L267 22L267 27L227 27L227 33L306 33L306 38L306 38L306 44L252 44L252 50L306 50L306 55L296 55L296 61L257 61L257 66L153 66Z" fill="#e5f5ff"></path><path d="M39 66L123 66L123 61L103 61L103 55L68 55L68 50L113 50L113 44L63 44L63 38L132 38L132 33L83 33L83 27L83 27L83 22L29 22L29 17L108 17L108 11L48 11L48 6L29 6L29 0L49 0L49 6L104 6L104 11L138 11L138 17L64 17L64 22L138 22L138 27L109 27L109 33L163 33L163 38L99 38L99 44L148 44L148 50L104 50L104 55L173 55L173 61L168 61L168 66L89 66Z" fill="#f2faff"></path><path d="M0 66L0 66L0 61L0 61L0 55L0 55L0 50L0 50L0 44L0 44L0 38L0 38L0 33L0 33L0 27L0 27L0 22L0 22L0 17L0 17L0 11L0 11L0 6L0 6L0 0L30 0L30 6L49 6L49 11L109 11L109 17L30 17L30 22L84 22L84 27L84 27L84 33L133 33L133 38L64 38L64 44L114 44L114 50L69 50L69 55L104 55L104 61L124 61L124 66L40 66Z" fill="#ffffff"></path></svg>