<svg id="visual" viewBox="0 0 273 66" width="273" height="66" xmlns="http://www.w3.org/2000/svg" xmlns:xlink="http://www.w3.org/1999/xlink" version="1.1"><path d="M231 66L228 66L228 58L223 58L223 50L231 50L231 41L223 41L223 33L226 33L226 25L237 25L237 17L239 17L239 8L212 8L212 0L273 0L273 8L273 8L273 17L273 17L273 25L273 25L273 33L273 33L273 41L273 41L273 50L273 50L273 58L273 58L273 66L273 66Z" fill="#ffffff"></path><path d="M193 66L149 66L149 58L130 58L130 50L198 50L198 41L146 41L146 33L193 33L193 25L171 25L171 17L171 17L171 8L163 8L163 0L213 0L213 8L240 8L240 17L238 17L238 25L227 25L227 33L224 33L224 41L232 41L232 50L224 50L224 58L229 58L229 66L232 66Z" fill="#f2faff"></path><path d="M176 66L138 66L138 58L86 58L86 50L182 50L182 41L130 41L130 33L166 33L166 25L138 25L138 17L149 17L149 8L116 8L116 0L164 0L164 8L172 8L172 17L172 17L172 25L194 25L194 33L147 33L147 41L199 41L199 50L131 50L131 58L150 58L150 66L194 66Z" fill="#e5f5ff"></path><path d="M136 66L114 66L114 58L56 58L56 50L171 50L171 41L111 41L111 33L138 33L138 25L111 25L111 17L127 17L127 8L97 8L97 0L117 0L117 8L150 8L150 17L139 17L139 25L167 25L167 33L131 33L131 41L183 41L183 50L87 50L87 58L139 58L139 66L177 66Z" fill="#e5f5ff"></path><path d="M81 66L78 66L78 58L40 58L40 50L130 50L130 41L92 41L92 33L111 33L111 25L75 25L75 17L89 17L89 8L73 8L73 0L98 0L98 8L128 8L128 17L112 17L112 25L139 25L139 33L112 33L112 41L172 41L172 50L57 50L57 58L115 58L115 66L137 66Z" fill="#f2faff"></path><path d="M0 66L0 66L0 58L0 58L0 50L0 50L0 41L0 41L0 33L0 33L0 25L0 25L0 17L0 17L0 8L0 8L0 0L74 0L74 8L90 8L90 17L76 17L76 25L112 25L112 33L93 33L93 41L131 41L131 50L41 50L41 58L79 58L79 66L82 66Z" fill="#ffffff"></path></svg>