<svg id="visual" viewBox="0 0 200 66" width="200" height="66" xmlns="http://www.w3.org/2000/svg" xmlns:xlink="http://www.w3.org/1999/xlink" version="1.1"><path d="M167 66L191 66L191 61L173 61L173 55L181 55L181 50L191 50L191 44L181 44L181 38L185 38L185 33L173 33L173 27L183 27L183 22L165 22L165 17L171 17L171 11L169 11L169 6L175 6L175 0L200 0L200 6L200 6L200 11L200 11L200 17L200 17L200 22L200 22L200 27L200 27L200 33L200 33L200 38L200 38L200 44L200 44L200 50L200 50L200 55L200 55L200 61L200 61L200 66L200 66Z" fill="#ffffff"></path><path d="M151 66L165 66L165 61L151 61L151 55L157 55L157 50L161 50L161 44L145 44L145 38L161 38L161 33L133 33L133 27L153 27L153 22L129 22L129 17L159 17L159 11L139 11L139 6L145 6L145 0L176 0L176 6L170 6L170 11L172 11L172 17L166 17L166 22L184 22L184 27L174 27L174 33L186 33L186 38L182 38L182 44L192 44L192 50L182 50L182 55L174 55L174 61L192 61L192 66L168 66Z" fill="#f2faff"></path><path d="M61 66L103 66L103 61L119 61L119 55L123 55L123 50L101 50L101 44L123 44L123 38L123 38L123 33L91 33L91 27L107 27L107 22L63 22L63 17L113 17L113 11L67 11L67 6L63 6L63 0L146 0L146 6L140 6L140 11L160 11L160 17L130 17L130 22L154 22L154 27L134 27L134 33L162 33L162 38L146 38L146 44L162 44L162 50L158 50L158 55L152 55L152 61L166 61L166 66L152 66Z" fill="#e5f5ff"></path><path d="M35 66L67 66L67 61L69 61L69 55L41 55L41 50L59 50L59 44L39 44L39 38L65 38L65 33L43 33L43 27L55 27L55 22L25 22L25 17L55 17L55 11L41 11L41 6L19 6L19 0L64 0L64 6L68 6L68 11L114 11L114 17L64 17L64 22L108 22L108 27L92 27L92 33L124 33L124 38L124 38L124 44L102 44L102 50L124 50L124 55L120 55L120 61L104 61L104 66L62 66Z" fill="#e5f5ff"></path><path d="M15 66L49 66L49 61L41 61L41 55L27 55L27 50L45 50L45 44L25 44L25 38L53 38L53 33L33 33L33 27L33 27L33 22L11 22L11 17L43 17L43 11L19 11L19 6L11 6L11 0L20 0L20 6L42 6L42 11L56 11L56 17L26 17L26 22L56 22L56 27L44 27L44 33L66 33L66 38L40 38L40 44L60 44L60 50L42 50L42 55L70 55L70 61L68 61L68 66L36 66Z" fill="#f2faff"></path><path d="M0 66L0 66L0 61L0 61L0 55L0 55L0 50L0 50L0 44L0 44L0 38L0 38L0 33L0 33L0 27L0 27L0 22L0 22L0 17L0 17L0 11L0 11L0 6L0 6L0 0L12 0L12 6L20 6L20 11L44 11L44 17L12 17L12 22L34 22L34 27L34 27L34 33L54 33L54 38L26 38L26 44L46 44L46 50L28 50L28 55L42 55L42 61L50 61L50 66L16 66Z" fill="#ffffff"></path></svg>